<svg id="Capa_1" data-name="Capa 1" xmlns="http://www.w3.org/2000/svg" viewBox="0 0 405.26 386.42"><defs><style>.cls-1{fill:#5e3c1a;}.cls-2{fill:#502917;}.cls-3{fill:#593128;}.cls-4{fill:#4f2a17;}.cls-5{fill:#e57e34;}.cls-6{fill:#cf8c42;}.cls-7{fill:#c4712e;}.cls-8{fill:#d7d6c4;}.cls-9{fill:#e9e7d3;}.cls-10{fill:#452814;}.cls-11{fill:#985545;}.cls-12{fill:#cf8d42;}.cls-13{fill:#4a2a15;}.cls-14{fill:#84511e;}.cls-15{fill:#83531e;}.cls-16{fill:#b16d4b;}.cls-17{fill:#fafaec;}.cls-18{fill:#935b3e;}.cls-19{fill:#9a5f41;}.cls-20{fill:#b16c4b;}.cls-21{fill:#faf9ec;}.cls-22{fill:#8c5841;}.cls-23{fill:#fbf6eb;}.cls-24{fill:#fbf6ec;}.cls-25{fill:#fbf7ed;}.cls-26{fill:#fbf8f0;}.cls-27{fill:#fbf6ed;}.cls-28{fill:#fbf4eb;}.cls-29{fill:#fbf5eb;}.cls-30{fill:#fcf7ef;}.cls-31{fill:#fcfbf9;}.cls-32{fill:#f7ead8;}.cls-33{fill:#f5d2b0;}.cls-34{fill:#fbf5ea;}.cls-35{fill:#f1a748;}.cls-36{fill:#4b2a14;}.cls-37{fill:#5a3217;}.cls-38{fill:#975544;}.cls-39{fill:#764741;}.cls-40{fill:#975445;}.cls-41{fill:#5d3329;}.cls-42{fill:#965446;}.cls-43{fill:#f3f0ee;}.cls-44{fill:#935243;}.cls-45{fill:#4c2b15;}.cls-46{fill:#5d332a;}.cls-47{fill:#f0a381;}.cls-48{fill:#5b3328;}.cls-49{fill:#f1efeb;}.cls-50{fill:#e58038;}.cls-51{fill:#e58037;}.cls-52{fill:#e47f36;}.cls-53{fill:#e3823d;}.cls-54{fill:#e3833b;}.cls-55{fill:#4c2a15;}.cls-56{fill:#ea813c;}.cls-57{fill:#ea813e;}.cls-58{fill:#5b3318;}.cls-59{fill:#682510;}.cls-60{fill:#5f2d0e;}.cls-61{fill:#552509;}.cls-62{fill:#965445;}.cls-63{fill:#985546;}.cls-64{fill:#955444;}.cls-65{fill:#774741;}.cls-66{fill:#965442;}.cls-67{fill:#b41621;}</style></defs><path class="cls-1" d="M253.08,498.63c-2.54-2-5.49-1-8.18-.8a499.18,499.18,0,0,0-51.27,6.09c2.55,13.58,3.79,12.88-10.2,15.38a599.62,599.62,0,0,0-64.38,15.25c-6.19,1.83-9-.93-7.49-7.2,1.27-5.33,2.47-10.68,4-15.91.71-2.39.21-3.6-1.82-4.89-5.6-3.55-11-7.42-16.63-10.92-2.22-1.38-3.48-2.89-3.21-5.57.29-2.91,2.46-3.64,4.75-4.31,14-4.06,28-7.85,42.21-10.88,3.51-.74,3.8-2,2.79-4.94-1.78-5.17-3.31-10.42-4.9-15.66-1.48-4.91-.56-6.65,4.52-7.8,13.93-3.17,28-5.51,42.12-7.7,2-.32,4.34.08,5.76-2,4.35-1.13,9-.85,13.2-2.64a72.81,72.81,0,0,0,15.08-1.6c2.3-.34,4.64,0,6.92-.52,14.82-1.6,29.72-2.12,44.59-2.9,6.08-.23,12.15-.2,18.22.14,1.48-.1,3-.24,4.44-.35,8,1,16.1-.22,24.15.12,4.76.2,9.55-.26,14.28.59a24.47,24.47,0,0,0,4.76.31c6,.13,11.88.83,17.83,1a27.86,27.86,0,0,0,4,.43c6.41.83,12.89.95,19.28,2a39.64,39.64,0,0,0,4.48.66c2.21.48,4.52.1,6.73.67,4.19,1.11,8.75,0,12.78,2.07,5.56,3.39,12,2.63,18.06,3.94,9.89,2.15,19.9,3.74,29.81,5.8,5.12,1.07,6,2.83,4.49,7.81q-2.41,8.1-5,16.14c-.85,2.59-.36,3.75,2.61,4.37,14.23,3,28.26,6.75,42.2,10.88,2.23.66,4.52,1.08,5,4,.56,3.21-1.21,4.72-3.67,6.25-5.22,3.21-10.2,6.8-15.38,10.08-2.36,1.5-3.47,2.83-2.37,6a149,149,0,0,1,4,15.39c1.42,6.09-1.27,8.94-7.12,7.22a660.63,660.63,0,0,0-70.25-16.36c-6.54-1.17-7.25-2.62-5.67-9.24.38-1.58.64-3.2,1-5-12.91-2.48-25.91-3.82-38.91-5.2-5.11-.54-10.28-.58-15.38-1.19a7.49,7.49,0,0,0-6.27,2.05c-4.47-2.89-9.45-.44-14.12-1.32a377.24,377.24,0,0,0-57.05.16C262.92,498.61,258,498.16,253.08,498.63Z" transform="translate(-93.91 -148.7)"/><path class="cls-2" d="M401.91,436.76c-4.5.7-8.93.74-13.13-1.4.12-2.87,2.44-4.26,4.15-6q37.23-37.32,74.53-74.58a55.29,55.29,0,0,0,4.46-4.72c4.94-6.28,4.91-13.42-.11-19.7a52.94,52.94,0,0,0-4.12-4.35L310.82,169.15a49.6,49.6,0,0,0-4.74-4.43c-6-4.59-12.9-4.62-18.92-.11a48.09,48.09,0,0,0-5.12,4.76q-29.16,29.15-58.31,58.29a32.08,32.08,0,0,1-5.15,4.72c-4.48,1.75-9.23.55-13.81,1.27a1.51,1.51,0,0,1-1.73-1.87c25.26-25.33,50.37-50.82,75.86-75.93,10.3-10.15,26.09-9.29,36.73,1.29q32.42,32.24,64.66,64.62,49.82,49.8,99.59,99.62c10.14,10.17,10.79,24.84,1.91,35.67a33.71,33.71,0,0,1-2.39,2.54q-38,38-75.93,76A17.14,17.14,0,0,1,401.91,436.76Z" transform="translate(-93.91 -148.7)"/><path class="cls-3" d="M203,231.78c5.45.16,10.92.78,16.25-1,4.88-2.83,10.44-2.18,15.6-2.36,22.93-.8,45.87-.61,68.67,2.58a47.72,47.72,0,0,1,6.34,1.36c4.34,1.23,6.92,3.83,6.83,8.56a8.85,8.85,0,0,0,3.32,7.35c5.24,4.58,5.35,15.12.14,19.69a11.88,11.88,0,0,0-4.22,8.62c-.43,5.81-1.17,11.58-1.83,17.36a10.43,10.43,0,0,0,.23,4.94c2.72,7.1,1.34,14-.79,20.94-1.22,1.12-2.48,2-4.09.64-1.44-2.35-.63-4.85-.45-7.31.53-7.08.22-7.47-6.73-7.48-19,0-38,0-57,0-10,0-20,.17-30-.09-4.13-.14-8.28.28-12.4,0s-5.27,1.65-5.12,5.37c.36,8.61,1.65,17.14,2.22,25.74s1.32,17.18,2.13,25.75c.6,6.3,1,6.66,7.41,6.53,5.63-.11,11.25.72,16.88,0,12.78-.2,25.55-.09,38.32-.06,2.15,0,4.34,0,6.19,1.42a2.94,2.94,0,0,1,.2,3.69c-2.25,1.84-5,1.58-7.58,1.57-10.39,0-20.79.25-31.17-.23a108.3,108.3,0,0,1-15.6-.08c-9.67.54-9.25-1.1-8.17,9.44s2.39,21.09,3.25,31.67c.57,7,3.18,12.48,10.75,14.32,1.52.37,3.31.82,3.62,2.91l-7.45.22c-7-.39-11.19-4.5-12.27-12.43-1.71-12.69-2.84-25.44-4.14-38.18-.37-3.57-.84-6.84-3.83-9.34-1.73-1.46-2-3.75-2.16-5.95-1.59-19.05-3.14-38.1-4.93-57.13a25.21,25.21,0,0,1,1.1-11.33,9.85,9.85,0,0,0,.42-4.92,106.28,106.28,0,0,1-1.18-12.41c-.23-6.57-1.53-12.43-7.07-16.62-.93-4.09-.23-8.2,0-12.29.11-2.55,1.77-4.27,3.79-5.48s3.4-2.58,3.46-5C192,235.49,198.14,234.23,203,231.78Z" transform="translate(-93.91 -148.7)"/><path class="cls-2" d="M192,242.81c2,2.56,1.58,4.78-1.51,5.68-3.83,1.1-4.5,3.6-4.46,7.07,0,3.05.8,6.24-1,9.13-.23,2.61-2.33,3.94-3.93,5.55q-27.3,27.39-54.65,54.7c-1.18,1.17-2.38,2.33-3.51,3.54-7.35,7.83-7.38,16,.16,23.79,7.27,7.53,14.73,14.89,22.19,22.24,11.26,11.08,22.11,22.57,33.54,33.47,7.68,7.32,15.06,14.95,22.85,22.16,1.34,1.25,3.38,2.37,2.3,4.86-4,2.49-8.2,3.69-12.82,1.76q-32.2-32-64.41-64.07c-4.84-4.81-9.78-9.53-14.44-14.52-9.71-10.4-9.83-25.95.15-36.05,26.09-26.4,52.42-52.57,78.66-78.82A3.78,3.78,0,0,1,192,242.81Z" transform="translate(-93.91 -148.7)"/><path class="cls-4" d="M326.21,497.79c3.72-2,7.73-.79,11.6-1,2.42-.12,1,1.79,1.19,2.85-8.43,8.49-16.57,17.29-25.38,25.37a25.31,25.31,0,0,1-34.12.05c-9.13-8.47-17.64-17.61-26.42-26.45,4.38-3.69,9.1-1.87,13.77-.84,2.59-.77,3.9,1.22,5.36,2.63,4.4,4.27,8.67,8.67,13,13,8,7.9,16.11,7.93,23.59-.36,4.34-4.81,9.61-8.65,13.62-13.77C323.36,498.13,324.49,497.07,326.21,497.79Z" transform="translate(-93.91 -148.7)"/><path class="cls-5" d="M294.51,435.15c39.26.39,75.86,2.67,112.22,8.41q20.16,3.19,40.17,7.08c2.78.54,3.12,1.4,2.31,3.95q-7.45,23.52-14.59,47.12c-.89,2.93-2.49,3.34-5.17,2.78a633.28,633.28,0,0,0-74.2-10.88c-22.88-2-45.77-3.32-68.71-2.75-34,.83-67.93,3.43-101.47,9.64-7.16,1.33-14.34,2.59-21.48,4-2.66.53-4.23.14-5.12-2.82q-7.12-23.61-14.61-47.09c-1-3.17.17-3.49,2.79-4,20.31-4.2,40.8-7.26,61.37-10C237.58,436.72,267.29,435.82,294.51,435.15Z" transform="translate(-93.91 -148.7)"/><path class="cls-6" d="M333.11,430.78c-12.42,0-24.85-.07-37.27-.16a11.61,11.61,0,0,1-2.84-.79c-1.92-.57-3.72-1.73-2.79-3.79.79-1.78,2.62-.4,4,.07a11,11,0,0,0,12.28-2.83,9.94,9.94,0,0,0,1.13-12A10.47,10.47,0,0,0,294.14,407a11,11,0,0,0-5.75,12.88c.47,1.56,2.53,3.62.24,4.77-1.89.95-3.07-1.28-4.14-2.75A68.68,68.68,0,0,1,272,391.23c-.45-2.93,0-5.19,4-5.2a6.13,6.13,0,0,0,6.28-5.94c.3-3.26-2.1-5.17-5.15-5.74-4.29-.8-4.84-3.43-3.87-7,6.17-22.91,20-39,42.34-47.47,1.38-.52,2.78-1.27,4.3-.36.31.4.68.94.46,1.33-3.74,6.44-6.08,13.7-11.23,19.32-1.8.37-3.1-.91-4.64-1.42-3.49-1.15-7.73.51-8.83,3.44-1.41,3.79.46,7.5,4.07,9.46,2,1.09,4.89-.67,6.19,2.15,0,8.64-.34,17.28-.08,25.91-.52,2-2.17,2.23-3.83,2.5a6.09,6.09,0,0,0-5.42,5c-.52,2.46,1.09,4.09,2.9,5.31,2.42,1.64,4.74.72,6.87-.76.81-.56,1.46-1.35,2.58-1.21,2.42,2.09,3.47,5.13,5.36,7.6a46.36,46.36,0,0,0,13.81,11.69c1.52.89,3.33,1.49,4.27,3.19C330.52,419,331.91,424.9,333.11,430.78Z" transform="translate(-93.91 -148.7)"/><path class="cls-7" d="M493.67,491.21c-5.94,4-11.59,8-17.5,11.64-3.67,2.24-5.09,4.58-3.51,9s2.14,9.38,3.54,14c1.21,3.93,0,4.41-3.48,3.39-14.49-4.23-29.1-8-43.91-11L415,515.32c5.49-2.68,10.55-3.59,15.53-4.46,4.81-.84,7.6-2.81,8.77-7.9,1.55-6.78,4.14-13.32,6.08-20,.94-3.27,2.05-4.38,5.94-3.49,13.74,3.16,27.34,6.81,40.9,10.59C492.6,490.17,492.94,490.63,493.67,491.21Z" transform="translate(-93.91 -148.7)"/><path class="cls-7" d="M98.42,490.54,143.1,479c2.51-.65,3.55.61,4.24,2.9,2.18,7.32,4.78,14.51,6.74,21.88,1.16,4.37,3.74,6.29,7.92,7a87.79,87.79,0,0,1,16.53,4.42c-14.87,3.15-28.42,5.86-41.76,9.49-5.45,1.48-10.92,2.86-16.32,4.48-3.27,1-4.84.93-3.58-3.23,1.48-4.92,2.24-10.06,3.84-14.93,1.1-3.37.67-5.3-2.5-7.24C111.86,499.85,105.79,495.5,98.42,490.54Z" transform="translate(-93.91 -148.7)"/><path class="cls-8" d="M226.3,433.67c-1-1.12-2.48-.79-3.72-1.14-7-2-11.44-5.84-12.09-13.75-1.13-13.7-2.81-27.35-4.34-41-.32-2.81.11-4.49,3.51-4a63,63,0,0,0,6.45.19c2.14.87,2.53,2.88,3.2,4.76,8.37,23.58,23.62,40.36,47.78,48.37,1.77.59,4.13.74,4,3.58Z" transform="translate(-93.91 -148.7)"/><path class="cls-9" d="M271,430.64a3.76,3.76,0,0,0-2.27-1.78c-26.75-7.67-42.9-25.89-51.45-51.68-.37-1.1-.8-2.17-1.21-3.25h16c2.76.91,4.09,3.19,5.48,5.5,9.45,15.69,22.69,26.77,40,32.82,4.59,5.17,7.79,11.38,12.29,16.63a1.36,1.36,0,0,1-.11,1.81Z" transform="translate(-93.91 -148.7)"/><path class="cls-10" d="M289.81,430.7c-4.54-5.81-9.06-11.64-12.66-18.11-2.46-1.27-3.1-3.73-4-6-3.36-8.26-3.39-17.18-5.15-25.76-.57-2.8.65-5.2,3-6.89,0-1,.06-2,.08-3-1.15-4,.72-7.46,1.95-11a103.09,103.09,0,0,1,9-18.59,12.11,12.11,0,0,0,4.05-4.39c2.82-2.93,4.06-6.32,3.05-10.37a2.42,2.42,0,0,1,1.55-2.2c.16,0,.41-.1.47,0,4.14,5.17,7.56,1.56,11.25-.76,2.27-1.42,4.37-3.69,7.56-2.79l3.29-1.08c17.29-7,34.54-6.48,51.71.37,2.32.93,4.49,1.88,7.1,1.84a7.13,7.13,0,0,1,6.55,3.9c1.71,3.43,4.61,5.6,7.18,8.14,12.4,12.32,19.46,27.05,20.36,44.63.18,3.62.89,7.35.85,10.82-.05,4.53-2.3,9.05-3.69,13.55A67.39,67.39,0,0,1,382,434.8a3.46,3.46,0,0,1-3.33-.12c-.1-2.93,2.21-4.33,4-6,8.42-7.71,13.7-17.3,17.4-28,1-2.91.59-4.45-2.1-5.56-3.29-4.91-3.07-7.9,1.46-10.92a6,6,0,0,0,2.92-6.27,67,67,0,0,0-17.72-39.81c-1.95-2.11-3.4-2.41-5.68-.11-4.53,4.58-9.42,5.06-13.86,1.95a10.62,10.62,0,0,1-3.35-13.74c1.43-2.94.08-3.38-2-4.05-11.12-3.52-22.37-4.74-33.9-2.28-1.89.4-3.83,1.35-5.77.08-24.62,7.46-39.19,24.36-45.7,48.79-.65,2.44-.37,3.86,2.9,4.13,4.09.35,6.6,3.13,6.59,7.41,0,4.1-3.39,7.1-8.13,6.87-2.18-.1-2.55.35-2.52,2.25.14,10,8,27.8,15.37,34.75-3.33-8.92-2.12-14.59,3.89-18.22,4.57-2.76,11.31-1.68,15,2.4a11.76,11.76,0,0,1,.74,15.11c-3.65,5.12-9.88,6-17.44,2.48-.42,2,1.86,2.38,2.27,3.82C292.16,430.94,291,430.74,289.81,430.7Z" transform="translate(-93.91 -148.7)"/><path class="cls-11" d="M355,431.8c-6.41,1.17-12.69.18-19-1.09-7.57-5-6.48-17.61,2-22.93,5.73-3.6,14-3,18.53,1.29a16.35,16.35,0,0,1,3,19.61C358.54,430.47,357.45,432.07,355,431.8Z" transform="translate(-93.91 -148.7)"/><path class="cls-12" d="M399,394.81c3.73.59,3.41,2.92,2.61,5.69-4,13.85-12.31,24.77-22.9,34.18L358,432.76a1.61,1.61,0,0,1,0-1.83c3.63-4.5,3.21-10,3.71-15.25a19.88,19.88,0,0,1,8.88-.38c1.5,1.15.76,2.77.75,4.17,0,4.28,2.69,6.34,6.21,7.38,3.27,1,5.9-.91,7.68-3.33,2.05-2.78,1.76-5.94-.14-8.86-.8-1.22-2.37-1.89-2.55-3.57a2.47,2.47,0,0,1,.82-1.77C389.23,405.13,394.05,399.92,399,394.81Z" transform="translate(-93.91 -148.7)"/><path class="cls-13" d="M362.15,415.77c1.85,6.44-.21,11.94-4.11,17-1.1,0-2.26.15-3-1,5-4.64,6.63-11.21,4.1-16.63-2.7-5.81-7.83-8.87-14-8.35-6.3.54-11.24,4.92-12.76,11.47-1.11,4.79.9,8.73,3.66,12.42-1,1.51-2,.45-3,.07-4-5.76-4.14-11.8-1.34-18.06a3.37,3.37,0,0,1,.61-2.82c4.23-6.1,10.41-7.34,17.18-6.48,6.06.78,10.33,4.2,12.65,9.92A3.11,3.11,0,0,1,362.15,415.77Z" transform="translate(-93.91 -148.7)"/><path class="cls-14" d="M420.14,508.33c-5,1.29-9.1,2.47-13.26,3.35-1.22.25-3.59,2.12-3.75-1-.11-2.32-.14-5.9,3.07-5.7C410.59,505.26,415.26,505.46,420.14,508.33Z" transform="translate(-93.91 -148.7)"/><path class="cls-15" d="M172.74,508.16c5.16-2.51,9.66-2.44,13.92-3.32,1.63-.34,2.3.88,2.5,2.39s1.61,3.15.38,4.72c-1.1,1.4-2.45.17-3.63-.15C181.86,510.73,177.84,509.58,172.74,508.16Z" transform="translate(-93.91 -148.7)"/><path class="cls-16" d="M309.94,320.77a91.24,91.24,0,0,0-13.08,8.13c-2.15,1.69-4.09,3-4-1.46,0-1.32-.89-2.07-1.92-2.7a6.8,6.8,0,0,1-4.28-2c-4.62-2.12-9.05-.65-11.12,3.7a8.56,8.56,0,0,0,3.82,11.43c1.69.91,4.7.61,4,4a103.65,103.65,0,0,0-12.34,29.09l-45-.2c-7.34-2.66-7.34-2.66-7.63-10.91,0-.33,0-.66,0-1,.12-4.83-.63-9.23-5.57-11.62,1-2,3-1.65,4.8-1.86,1.93-.23,4,.25,6-1.37-3.08-3.18-8,0-10.8-3.23.29-2,1.93-2,3.4-2.3,2.45-.1,4.92.2,7.36-.09a8.1,8.1,0,0,0,7-9.16c-.21-1.81-1.29-2-2.65-2.16-1.24-1.07-1.4-2.78-2.42-4-1.86-1.76-4-1.86-6.35-1.23-1.54.41-3.12,1.06-4.69,0-2.9-4.23-2.09-9.22-2.72-13.88-.26-1.88,1.52-3.18,3.31-3.92q46.47-.08,92.93-.18c2.65,0,3.92.29,3.26,3.6C310.41,311.78,310.34,316.31,309.94,320.77Z" transform="translate(-93.91 -148.7)"/><path class="cls-17" d="M217.09,272c14.8.64,29.6,1.06,44.42.88,15.64-.19,31.27-.69,46.77-3.07,3.08-.47,4.14.08,3.71,3.38q-1.61,12.36-2.75,24.77c-.21,2.31-.9,3.06-3.27,3.05q-44.45-.22-88.88-.26a5.72,5.72,0,0,1-1.72-4q-.44-10.38,0-20.77A5.42,5.42,0,0,1,217.09,272Z" transform="translate(-93.91 -148.7)"/><path class="cls-18" d="M251.83,269.86a370.24,370.24,0,0,1-49.87-2.1,104.11,104.11,0,0,1-10.73-2.07c-2-.42-3-1.54-3.18-3.79-.51-6.69-.31-7,6.42-5.38,9.24,2.18,18.73,2.8,28.1,3.09,11.79.36,23.6,1.67,35.36,1,17.85-1,35.84-.36,53.53-3.79a4.46,4.46,0,0,1,1.48-.16c2,.35,4.69-3.76,5.95.46,1.55,5.2,0,7.81-4.71,8.81-14.34,3.05-28.9,3.85-43.51,3.89C265,269.87,259.35,269.86,251.83,269.86Z" transform="translate(-93.91 -148.7)"/><path class="cls-19" d="M217.28,339.56c-1.42.34-3-.1-4.25,1.08-1.42,2.1-2,4.2,0,6.3a4,4,0,0,0,3.22.88c3-.15,3.84.71,3.47,4.05-.5,4.48.08,9.1.41,13.64.26,3.52,4.93,2.32,5.93,5.18-7.13,0-14.27,0-21.41.13-2.46,0-3.45-.74-3.65-3.38-1.2-15.48-2.49-31-4-46.41-.43-4.45-.91-8.87-1-13.35,0-2.73.75-4,3.64-3.86,5.14.18,10.29.12,15.43.15-4.11,6-.13,12,0,18,.52,1.22-.23,2.2-.61,3.25-1.44,4-2.05,7.92,1.6,11.25A3.27,3.27,0,0,1,217.28,339.56Z" transform="translate(-93.91 -148.7)"/><path class="cls-20" d="M256.35,253.82c-19.25.23-36.64-.42-53.92-3-2.11-.31-4.63-.39-5.84-2.26a7,7,0,0,1-.17-6.72c1-2.08,3-.24,4.45.05a153.29,153.29,0,0,0,27.65,2.84c17.12.38,34.26.31,51.38,0a151.2,151.2,0,0,0,28.11-3c1.7-.35,4.18-2.39,4.71,1,.4,2.58,1.29,6-2.73,6.95a78.7,78.7,0,0,1-10.71,2.05C284.41,253.23,269.51,254.44,256.35,253.82Z" transform="translate(-93.91 -148.7)"/><path class="cls-21" d="M271,373.91c-2.65,11.88.87,23,4.37,34.07.5,1.57,1.19,3.07,1.79,4.61-4,1.18-6.77-1.91-9.85-3.33-13.68-6.34-23.45-17-31.29-29.59-1.22-2-2.6-3.82-3.9-5.73Z" transform="translate(-93.91 -148.7)"/><path class="cls-20" d="M311.62,238.67c-38.66,5.58-76.6,5.84-114.51-.61C212.08,230.65,302.75,231.13,311.62,238.67Z" transform="translate(-93.91 -148.7)"/><path class="cls-8" d="M207.09,300.76c-8.92.59-8.92.59-9.81-7.88-.7-6.6-1.33-13.21-2.12-19.8-.33-2.75.24-3.9,3.35-3.31,4.54.87,9.15,1.34,13.73,2-2.74,2.48-3.62,5.56-3.46,9.23.21,4.59.1,9.19,0,13.79C208.77,296.91,208.76,299.08,207.09,300.76Z" transform="translate(-93.91 -148.7)"/><path class="cls-9" d="M207.09,300.76c0-7.77.16-15.54-.08-23.3-.12-3.94,1.06-6,5.23-5.71l4.85.25v28.75Z" transform="translate(-93.91 -148.7)"/><path class="cls-22" d="M189.68,251.42a365,365,0,0,0,127.87-.3C309.24,259.67,206.85,260.3,189.68,251.42Z" transform="translate(-93.91 -148.7)"/><path class="cls-23" d="M201.43,464.81a53.68,53.68,0,0,0,7.64-11.29c.58-1.17,1.2-2.1,2.63-1.32s.94,2,.28,3c-1.69,2.47-3.38,5-5.3,7.25-1.44,1.7-1.26,2.79.48,4,3.28,2.28,6.55,4.58,9.73,7,1.1.84,4,.9,2.41,3.32s-3.31.59-4.67-.43c-3.06-2.3-5.93-4.86-9-7.18-1-.75-1.84-2-3.46-1.79-.56,3.25.56,6.26,1.37,9.27.43,1.58.29,2.64-1.35,3.1s-2.5-.8-2.71-2.14c-1.14-7.21-1.28-14.58-3.61-21.6-.41-1.26.58-1.81,1.56-2.07,1.28-.34,2.37,0,2.61,1.5C200.52,458.18,200.89,461,201.43,464.81Z" transform="translate(-93.91 -148.7)"/><path class="cls-24" d="M253.67,463.25c-1.38,3.3-2.63,6.53-4.1,9.67-.72,1.53-1.94,2.48-3.38.58-3.34-4.42-4.84-9.81-7.58-14.55-.55-.94.22-1.56,1-1.91,1.18-.56,1.95.2,2.37,1.14,1.06,2.42,2,4.91,3,7.36.7,1.66,1.5,3.28,2.41,5.27,3.46-3.43,3.3-7.78,4.51-11.57.34-1.06,0-2.67,1.49-2.79s1.62,1.42,2,2.5c1.21,3.59,2,7.37,4.53,11a18.16,18.16,0,0,0,4.36-11.8c0-1.17-.64-3.07,1.51-3,1.92.09,2.34,1.7,2,3.33a37.91,37.91,0,0,1-5.93,13.63c-1.55,2.29-3.25,2.26-4.46-.28C256,469,254.89,466.1,253.67,463.25Z" transform="translate(-93.91 -148.7)"/><path class="cls-25" d="M391.72,481.42a8.48,8.48,0,0,1-8.69-8.24,10,10,0,0,1,8.81-10.38,7,7,0,0,1,3.46.19c3.64,1.65,4.78.36,4.71-3.31,0-1.53-1-4.36,2.07-4s1.26,2.82,1.05,4.38c-.91,6.57-2.93,13-2.9,19.69,0,1.41-.83,2.9-1.73,2.08C396,479.62,393.76,481.09,391.72,481.42Z" transform="translate(-93.91 -148.7)"/><path class="cls-26" d="M329.47,448c2.66,0,4.66-.12,6.64,0a1.68,1.68,0,0,1,1.6,2.09,1.7,1.7,0,0,1-2.24,1.37c-1.3-.24-2.64-.35-3.92-.66-4.85-1.17-4.9,2.22-5.19,5.4-.39,4.23,2.92,2.45,4.81,2.9a12.76,12.76,0,0,0,2.48.06c.93.05,2.13-.25,2.19,1.27A1.6,1.6,0,0,1,334,462.2c-8.65-2.39-8.54,3-8,8.84.13,1.39.07,2.72-1.86,2.8-2.31.1-2.19-1.54-2.16-3.06.15-7,1-13.91,1.38-20.89C323.52,445.49,327.93,448.91,329.47,448Z" transform="translate(-93.91 -148.7)"/><path class="cls-24" d="M338,466.91a9.67,9.67,0,0,1,10.06-10c5.51.05,9.84,4,9.89,9.08a10.33,10.33,0,0,1-10,10.3C342.09,476.39,338,472.51,338,466.91Z" transform="translate(-93.91 -148.7)"/><path class="cls-27" d="M370.82,459.53c5.63.09,9.88,3.94,9.86,9a10.43,10.43,0,0,1-10.63,10.2c-5.56-.22-9.3-4.05-9.28-9.5C360.79,463.09,364.58,459.45,370.82,459.53Z" transform="translate(-93.91 -148.7)"/><path class="cls-28" d="M222.41,462.28c-1-3.7,2.1-3.93,4.24-4.38,3.51-.74,7-.13,8,3.91,1,3.83.54,7.95,2.06,11.72.3.73-.27,1.76-.6,1.66-3.83-1.17-7,2.57-10.82,1.33a5.62,5.62,0,0,1-2.36-9.28c1.17-1.27,2.76-1.77,4.29-2.42s3.94,1,4.59-1.66c.15-.58-.51-1.63-1.09-2.06-2-1.5-4.08-1-6,.28C224.06,461.81,223.64,462.69,222.41,462.28Z" transform="translate(-93.91 -148.7)"/><path class="cls-29" d="M278.14,454.71c4.75-.08,7,1.91,7.12,6.22a21.93,21.93,0,0,1,0,4c-.44,2.61,2.18,5.86.15,7.45-1.49,1.16-4.69.22-7.24,1.06a5.29,5.29,0,0,1-6.75-3.62c-1.05-3,.19-5.57,3.1-7a24.7,24.7,0,0,1,3.76-1.11c1.44-.45,4.41,1,3.7-2.21-.57-2.62-3-2.68-5.27-2a9.41,9.41,0,0,0-2.18,1.13c-.61.4-1.16.66-1.71,0-.69-.83-.29-1.53.34-2.15A6.39,6.39,0,0,1,278.14,454.71Z" transform="translate(-93.91 -148.7)"/><path class="cls-30" d="M300.93,463.71c0-2.14,0-4.27,0-6.41,0-1.35.41-2.3,1.9-2.26a1.9,1.9,0,0,1,1.91,2.35c-.44,4.58-1,9.16-.14,13.76.23,1.29-.6,1.81-1.63,2-1.52.27-2.08-.72-2.11-2-.06-2.46,0-4.93,0-7.4Z" transform="translate(-93.91 -148.7)"/><path class="cls-31" d="M291.18,456.72A2.13,2.13,0,0,1,293.9,455c1.65,5.18-.25,10.58,1,15.79.36,2.59-1.29,2.21-2.86,1.92C290.69,467.44,292.28,462,291.18,456.72Z" transform="translate(-93.91 -148.7)"/><path class="cls-32" d="M295.5,449.38c-.36,1.41-1.11,2.42-2.72,2.29a1.83,1.83,0,0,1-1.83-1.93,2.28,2.28,0,0,1,2.36-2.58C294.61,447.12,295.37,448,295.5,449.38Z" transform="translate(-93.91 -148.7)"/><path class="cls-33" d="M291.18,456.72c2.11,5.23.21,10.68.89,16C289.72,467.5,291.75,462,291.18,456.72Z" transform="translate(-93.91 -148.7)"/><path class="cls-33" d="M294.93,470.79c-2.11-5.15-.15-10.56-1-15.79C296.5,460.11,294.34,465.54,294.93,470.79Z" transform="translate(-93.91 -148.7)"/><path class="cls-34" d="M305.1,449.38a2.17,2.17,0,0,1-2.13,2.27c-1.47.09-2.13-.78-2.05-2.14a2,2,0,0,1,2.34-2C304.37,447.6,305.13,448.12,305.1,449.38Z" transform="translate(-93.91 -148.7)"/><path class="cls-35" d="M362.15,415.77c-7.06-14.19-20.46-15.54-30.38-3-10.75-4.14-18.94-10.92-22.88-22.11-1.46-3.16-2.36-6.55-3.94-9.67a84.91,84.91,0,0,1,.14-27.78A16.16,16.16,0,0,0,309,339.81c3.23-6.83,6.42-13.69,11-19.77,15.37-5,30.31-3.45,45.85,3-3.64,3-4.71,6.59-3.79,10.64a8.5,8.5,0,0,0,4.12,5.41c5.32,3.19,10.35,1.12,14.67-6.36a64.76,64.76,0,0,1,21,33.62,52.94,52.94,0,0,1,2,15.24c-.05,1.45.14,2.58-2,3.23-5.81,1.73-6.57,4.8-2.95,9.94-3,7.71-9.79,11.66-16.11,16.06A2.42,2.42,0,0,1,380.8,412c-4.06-.56-6.9,2.06-10.1,3.73C367.85,416.71,365,417.59,362.15,415.77Z" transform="translate(-93.91 -148.7)"/><path class="cls-36" d="M309,339.81c2.72,6.77,1.9,9.58-3.94,13.35-4.64,1.32-8.46-.05-10.49-4.33-1.74-3.69-1.36-7.6,2.27-10.32C301.24,335.23,305.27,336.58,309,339.81Z" transform="translate(-93.91 -148.7)"/><path class="cls-37" d="M305,380.94c3.64,2.27,4.79,5.56,3.95,9.67-3.61,4.48-6.93,5.5-10.45,3.15-2.91-1.95-4.38-4.75-3.14-8.08C296.94,381.31,300.51,380,305,380.94Z" transform="translate(-93.91 -148.7)"/><path class="cls-38" d="M308,416.49a9.5,9.5,0,0,1-19-.11,9.5,9.5,0,1,1,19,.11Z" transform="translate(-93.91 -148.7)"/><path class="cls-39" d="M290,326.81c2.94,4.74-.13,7.83-3,11-3.65,2.23-7.19,1.52-10-1.26s-3.15-6.52-1.76-10.22c1.34-3.54,4.21-4.73,8.34-3.73A8.78,8.78,0,0,0,290,326.81Z" transform="translate(-93.91 -148.7)"/><path class="cls-40" d="M370.81,337.82c-3.47-.09-6.76-3.33-6.77-6.66a7.44,7.44,0,0,1,7.5-7.15c3.26.18,6.43,3.73,6.43,7.18C378,335.13,374.93,337.94,370.81,337.82Z" transform="translate(-93.91 -148.7)"/><path class="cls-41" d="M283.92,323.8c-4-2.25-6.45-.12-7.67,3.36-1.73,4.92.89,9.81,5.31,10.51a36.63,36.63,0,0,0,5.45.11,7,7,0,0,1-3.6,4c-.55-2.45-2.92-1.78-4.43-2.52a10.12,10.12,0,0,1-4.58-13.89,9.31,9.31,0,0,1,13.69-3.54A4.93,4.93,0,0,1,283.92,323.8Z" transform="translate(-93.91 -148.7)"/><path class="cls-42" d="M272,380.14c.24-3,1.86-4.52,4.8-4.4a4,4,0,0,1,4.27,4.38c0,2.94-1.54,4.62-4.52,4.63S272.13,383,272,380.14Z" transform="translate(-93.91 -148.7)"/><path class="cls-43" d="M283.92,323.8a4.33,4.33,0,0,1,4.17-1.95l2.89,2.89c-1,.36-.82,1.29-1,2.07C285.13,329.12,284.43,328.78,283.92,323.8Z" transform="translate(-93.91 -148.7)"/><path class="cls-44" d="M404.85,390a2.54,2.54,0,0,1-2.77,2.76c-1.67,0-3-.75-2.9-2.56a2.88,2.88,0,0,1,2.76-2.92C403.61,387.17,404.47,388.47,404.85,390Z" transform="translate(-93.91 -148.7)"/><path class="cls-45" d="M370.7,415.72c2.63-5.18,7.14-5.65,12.16-4.85,2.36,1.83,4.72,3.69,5.09,6.95.45,4-.79,7.11-4.34,9.26a8.24,8.24,0,0,1-9.74-.39C370,423.93,369.19,420.12,370.7,415.72Z" transform="translate(-93.91 -148.7)"/><path class="cls-46" d="M217.28,339.56c-6.69-6.58-7.18-10.43-2.2-17.56,4.11-1.89,8.23-4.11,12,.52-2.07,1.11-3.43,3-5.15,4.55-2-.47-4.07-3-5.72.52a6.46,6.46,0,0,0,2.53,7.84,5.92,5.92,0,0,0,7.9-1.8,8.56,8.56,0,0,0,.95-5.79,1.54,1.54,0,0,1,.57-1.18l1.7-2.34c3.08,3.64,2.64,7.48.58,11.13-2,3.48-5.25,4.86-9.26,4.43C219.92,339.74,218.6,339.67,217.28,339.56Z" transform="translate(-93.91 -148.7)"/><path class="cls-47" d="M213,346.94c-1.56-.68-3.89-.75-3.8-3.06.08-2.07,2.08-2.66,3.79-3.24,3.43.14,6.88.15,10.29.49,1.4.14,3.18.74,3.34,2.43.19,2.1-1.84,2.74-3.34,2.91C219.92,346.86,216.47,346.81,213,346.94Z" transform="translate(-93.91 -148.7)"/><path class="cls-48" d="M253.47,349.71c-4.86,0-10.54-4.91-11.24-9.68-.16-1.09-.56-2.56,1-2.88s1.6,1.13,1.84,2.26c.94,4.45,3.87,7.09,8.24,7.25,4.6.18,7.9-2.12,8.74-7,.19-1.16.37-2.62,1.91-2.3s1,1.83.85,2.9C264,345.19,258.43,349.77,253.47,349.71Z" transform="translate(-93.91 -148.7)"/><path class="cls-49" d="M228.21,326.66l-.47,1c-2.32,2.66-4.05,1.84-5.45-.91-.43-3.73.73-5.67,4.84-4.27A4.87,4.87,0,0,1,228.21,326.66Z" transform="translate(-93.91 -148.7)"/><path class="cls-50" d="M391.13,478.72c-2.93-.19-4.82-2.34-4.86-6,0-4.27,3-7.43,7.05-7.18,2.26.14,5.35-.3,5.23,3.51C398.32,476,396.39,478.76,391.13,478.72Z" transform="translate(-93.91 -148.7)"/><path class="cls-51" d="M348,473.62a6.89,6.89,0,0,1-6.95-6.87,6.77,6.77,0,0,1,6.7-7.08,6.6,6.6,0,0,1,7,6.73A7.07,7.07,0,0,1,348,473.62Z" transform="translate(-93.91 -148.7)"/><path class="cls-52" d="M377.2,468.62c.06,4.38-2.41,7.12-6.46,7.18s-6.65-2.34-6.77-6.25c-.14-4.37,2.76-7.66,6.72-7.62S377.15,464.65,377.2,468.62Z" transform="translate(-93.91 -148.7)"/><path class="cls-53" d="M228.25,473.81c-2.25.19-3.8-.88-3.66-3,.2-3.16,2.8-3.73,5.4-4,2.28-.24,2.9,1.11,2.88,3C232.83,472.87,230.75,473.61,228.25,473.81Z" transform="translate(-93.91 -148.7)"/><path class="cls-54" d="M278.47,470.75c-2.58,0-4.28-.77-4.21-3,.1-3.23,2.66-3.69,5.25-3.94,2.39-.22,3.25.9,3.15,3.17C282.54,470.1,280.46,470.66,278.47,470.75Z" transform="translate(-93.91 -148.7)"/><path class="cls-55" d="M354,340.09a9,9,0,0,1-9,9.22,9.31,9.31,0,0,1-9-8.9,9.41,9.41,0,0,1,9.17-9.25A9,9,0,0,1,354,340.09Z" transform="translate(-93.91 -148.7)"/><path class="cls-56" d="M316.39,380.83a13.88,13.88,0,0,1-3-.18c-2.1-.58-4.38-1.19-4.28-4,.09-2.54,2.23-3.09,4.14-3.65a9.2,9.2,0,0,1,3-.16c3,.14,6.66.13,6.55,4.25C322.69,380.81,319.37,380.94,316.39,380.83Z" transform="translate(-93.91 -148.7)"/><path class="cls-57" d="M360.25,380.85a11.48,11.48,0,0,1-2.44-.32c-1.86-.67-4.21-1.38-4.3-3.58-.09-2.57,2.49-3.19,4.47-3.93a9.77,9.77,0,0,1,2.44-.23c3.26-.31,6.9.57,6.94,3.85C367.41,380.34,363.68,381.12,360.25,380.85Z" transform="translate(-93.91 -148.7)"/><path class="cls-58" d="M386.85,359.64a6.72,6.72,0,0,1,7.19,6.53,7.13,7.13,0,0,1-6.74,7.6,7.3,7.3,0,0,1-7.31-7.16A6.93,6.93,0,0,1,386.85,359.64Z" transform="translate(-93.91 -148.7)"/><path class="cls-59" d="M334.5,384.52c1.16-1.5,2.7-.21,4-1.14a13.6,13.6,0,0,0-.53-1.55c-1.88-4.08-.08-6.64,3.55-8.27,2.21-1,8.14,1.4,9,3.52.43,1.09-.6,1.74-1.17,2.43C345.51,384.18,340.7,386.09,334.5,384.52Z" transform="translate(-93.91 -148.7)"/><path class="cls-60" d="M307.84,362.24c4.79,6.44,9.78,8.55,16,.83-.52,4.05-2.82,6.35-6.67,6.7C312.51,370.2,309.56,368.13,307.84,362.24Z" transform="translate(-93.91 -148.7)"/><path class="cls-61" d="M352.5,362.83c4.88,4.75,7.86,8.17,16.7-.83-1.69,4.53-3.76,6.9-8.05,7C356.58,369.15,353.66,367.29,352.5,362.83Z" transform="translate(-93.91 -148.7)"/><path class="cls-62" d="M301.06,350.85c-3-.52-5.23-2.47-4.9-6.23s2.67-5.85,6.28-5.57a5.57,5.57,0,0,1,5.49,6.37C307.67,349.09,305.37,350.94,301.06,350.85Z" transform="translate(-93.91 -148.7)"/><path class="cls-63" d="M302.15,382.1c2.81.91,5.57,2.28,5.48,5.54a5.29,5.29,0,0,1-5.38,5.48c-3.08,0-5.32-1.68-5.29-5.31S299.06,382.83,302.15,382.1Z" transform="translate(-93.91 -148.7)"/><path class="cls-64" d="M380.12,412.84c3.1.53,5.2,2.92,5.58,6.5.34,3.18-3.44,6.48-6.81,6.42s-6.79-3.48-6.64-6.67S376.07,412.73,380.12,412.84Z" transform="translate(-93.91 -148.7)"/><path class="cls-65" d="M222.29,326.79a4.73,4.73,0,0,0,5.45.91c3.45,2.78,1.24,5.8-.4,7.87-2.39,3-6.2,3.17-9.43,1.3a7.6,7.6,0,0,1-3.76-8.05,6.33,6.33,0,0,1,4.45-5.35C222.09,322.25,220.37,326.47,222.29,326.79Z" transform="translate(-93.91 -148.7)"/><path class="cls-62" d="M346.1,346.76c-4.45.07-7.16-2.68-7.14-6.52s2-6.17,6-6.38c3.33-.18,7.2,3.31,6.82,6.43C351.29,343.83,349.27,346.33,346.1,346.76Z" transform="translate(-93.91 -148.7)"/><path class="cls-66" d="M387.8,371.87c-3.95-.06-5.9-1.59-5.84-5.12.05-3.28,1.76-5.51,5-5.7a5.43,5.43,0,0,1,.88,10.82Z" transform="translate(-93.91 -148.7)"/><path class="cls-67" d="M341.48,383.18a3.71,3.71,0,0,1-2.48-3.8,4.14,4.14,0,0,1,3.73-4.54,4.2,4.2,0,0,1,4.92,2.54c.72,1.68-.13,3.08-2.08,3C343.3,380.22,344,383.85,341.48,383.18Z" transform="translate(-93.91 -148.7)"/></svg>