<?xml version="1.0" standalone="no"?>
<!DOCTYPE svg PUBLIC "-//W3C//DTD SVG 20010904//EN"
 "http://www.w3.org/TR/2001/REC-SVG-20010904/DTD/svg10.dtd">
<svg version="1.0" xmlns="http://www.w3.org/2000/svg"
 width="703.000000pt" height="714.000000pt" viewBox="0 0 703.000000 714.000000"
 preserveAspectRatio="xMidYMid meet">

<g transform="translate(0.000000,714.000000) scale(0.100000,-0.100000)"
fill="#000000" stroke="none">
<path d="M3480 6278 c-36 -13 -76 -31 -89 -40 -14 -10 -286 -278 -605 -597
-439 -437 -588 -580 -611 -585 -17 -4 -45 -15 -63 -26 -26 -16 -32 -26 -32
-54 0 -32 -40 -74 -598 -629 -393 -392 -608 -614 -629 -649 -49 -80 -69 -172
-55 -255 23 -139 10 -124 663 -778 l599 -600 -32 -7 c-18 -4 -107 -19 -198
-33 -291 -47 -511 -93 -531 -111 -28 -25 -24 -61 26 -218 25 -79 45 -147 45
-153 0 -6 -24 -16 -52 -23 -225 -51 -587 -147 -649 -171 -34 -13 -52 -51 -39
-83 6 -16 65 -62 168 -130 l159 -105 -38 -148 c-43 -169 -47 -203 -21 -226 26
-24 59 -21 176 12 226 66 539 139 821 192 94 17 181 38 194 46 24 16 25 34 5
154 l-6 36 79 12 c169 25 466 60 616 72 l158 12 227 -225 c264 -262 280 -272
432 -272 152 0 168 10 432 272 l227 225 158 -12 c150 -12 447 -47 616 -72 87
-13 87 -13 63 -104 -15 -58 -11 -81 18 -99 11 -8 100 -28 196 -46 265 -49 585
-124 816 -191 118 -34 155 -36 177 -11 24 26 21 58 -22 225 l-37 147 158 106
c92 61 163 115 167 127 12 32 -6 74 -37 85 -77 30 -399 115 -650 172 -63 14
-62 -3 -1 191 44 141 48 178 20 203 -20 18 -231 62 -564 117 -108 18 -196 34
-195 35 2 2 272 272 600 601 647 648 634 633 659 768 14 76 4 145 -33 225 -32
70 127 -91 -2118 2145 -420 417 -448 444 -505 465 -89 33 -185 36 -265 8z
m212 -156 c55 -25 2514 -2482 2539 -2536 27 -59 24 -131 -6 -193 -20 -40 -159
-183 -656 -674 -347 -343 -635 -626 -640 -628 -6 -1 -25 0 -44 3 l-34 7 63 62
c121 120 215 277 257 432 11 44 30 99 42 122 18 36 19 47 9 80 -6 21 -13 85
-16 143 -6 132 -33 237 -96 365 -56 117 -120 204 -216 296 -38 36 -76 80 -86
97 -22 41 -58 63 -110 67 -24 2 -71 15 -106 29 -125 52 -223 70 -382 69 -123
0 -160 -4 -240 -26 -52 -14 -104 -29 -114 -33 -18 -7 -19 -4 -12 51 3 31 9 91
13 132 6 70 5 74 -16 80 -18 4 -21 11 -16 37 6 35 45 411 45 431 0 7 13 16 29
20 60 13 71 35 71 144 0 107 -6 119 -65 138 -30 10 -30 10 -35 99 l-5 88 -49
19 c-118 43 -432 67 -861 66 -159 -1 -334 -4 -388 -8 -53 -3 -97 -4 -97 -1 0
3 226 231 503 507 316 317 515 508 537 517 47 20 136 20 182 -2z m-1655 -1566
c29 -7 30 -10 36 -69 17 -173 37 -365 41 -387 4 -19 -1 -28 -17 -35 -18 -8
-21 -17 -19 -50 2 -22 19 -220 37 -440 19 -220 38 -434 41 -475 7 -83 15 -100
50 -100 13 0 24 -1 24 -3 0 -2 11 -111 25 -242 14 -132 30 -287 36 -345 6 -58
15 -122 20 -142 12 -46 51 -93 107 -129 l43 -27 -68 -8 c-37 -4 -82 -7 -100
-8 -28 -1 -87 54 -662 624 -681 674 -681 674 -681 774 1 100 5 106 528 626
l487 485 21 -21 c12 -12 35 -25 51 -28z m409 -57 c367 -26 1057 -13 1302 25
72 12 82 11 82 -2 0 -8 -7 -83 -16 -166 -9 -83 -19 -180 -22 -216 l-7 -65
-817 -3 -818 -2 0 37 c0 21 -7 94 -14 163 -8 69 -18 157 -21 196 l-7 71 80
-13 c43 -7 160 -18 258 -25z m2011 -698 c40 -12 90 -28 113 -37 l40 -16 -21
-29 c-37 -52 -43 -93 -20 -144 49 -111 195 -114 249 -5 l19 39 65 -67 c156
-163 244 -353 267 -580 11 -107 8 -122 -26 -122 -34 0 -73 -42 -73 -80 0 -33
40 -80 68 -80 19 0 10 -51 -29 -151 -52 -134 -135 -255 -247 -360 -63 -59 -67
-61 -107 -56 -23 4 -90 9 -148 13 l-107 7 23 31 c35 47 51 95 50 151 -2 170
-174 283 -336 221 -50 -19 -111 -79 -133 -132 -23 -54 -18 -152 10 -200 l23
-41 -286 4 -286 4 -54 57 c-121 126 -207 300 -240 486 -17 94 -17 95 27 90 52
-7 97 23 113 74 21 72 -33 142 -111 142 -30 0 -31 1 -25 38 19 113 91 274 171
382 141 192 374 337 611 380 84 16 319 4 400 -19z m-1869 -53 c7 -7 12 -21 12
-33 0 -12 -5 -26 -12 -33 -28 -28 -78 -7 -78 33 0 27 18 45 45 45 12 0 26 -5
33 -12z m913 -9 c18 -34 -3 -69 -41 -69 -22 0 -33 6 -41 24 -16 35 3 66 41 66
20 0 33 -7 41 -21z m-987 -91 c-3 -4 -9 -8 -15 -8 -5 0 -9 4 -9 8 0 5 7 9 15
9 8 0 12 -4 9 -9z m911 3 c-9 -8 -36 -10 -30 -2 2 4 11 8 20 8 8 0 13 -3 10
-6z m-872 -173 c22 -9 27 -16 25 -37 -2 -20 -12 -29 -38 -38 -78 -26 -214 -9
-226 30 -8 24 3 35 52 53 42 15 138 11 187 -8z m850 -27 c-23 -32 -30 -37 -41
-27 -16 16 -7 41 21 54 43 21 49 13 20 -27z m-180 -447 c3 -3 -2 -25 -11 -49
-13 -35 -14 -50 -4 -82 6 -21 14 -65 17 -99 18 -197 133 -455 249 -563 14 -14
26 -27 26 -31 0 -4 -89 -10 -197 -14 -225 -7 -496 -23 -626 -35 -134 -13 -248
22 -302 93 -24 32 -29 52 -46 203 -19 175 -59 553 -59 565 0 8 172 12 661 16
157 1 288 -1 292 -4z m788 -914 c366 -14 908 -63 1154 -104 17 -3 77 -13 135
-21 58 -9 188 -32 290 -51 102 -20 200 -38 218 -41 18 -3 35 -9 37 -14 3 -4
-10 -56 -29 -116 -19 -59 -73 -231 -120 -382 -47 -150 -87 -275 -89 -277 -2
-2 -60 7 -128 20 -627 124 -1214 181 -1879 180 -673 0 -1292 -60 -1904 -185
-54 -11 -100 -18 -103 -16 -3 4 -47 142 -209 662 -18 60 -30 112 -26 116 8 8
208 47 422 83 737 125 1500 175 2231 146z m-2654 -646 c-3 -3 -12 -4 -19 -1
-8 3 -5 6 6 6 11 1 17 -2 13 -5z m-77 -14 c-13 -8 -12 -10 3 -10 36 0 15 -15
-23 -16 -47 -2 -51 8 -12 23 35 14 51 15 32 3z m4671 -8 c-7 -2 -18 1 -23 6
-8 8 -4 9 13 5 13 -4 18 -8 10 -11z m-4774 -18 c-3 -3 -12 -4 -19 -1 -8 3 -5
6 6 6 11 1 17 -2 13 -5z m160 0 c-3 -3 -12 -4 -19 -1 -8 3 -5 6 6 6 11 1 17
-2 13 -5z m4841 -30 c12 -4 22 -13 22 -20 0 -18 -10 -17 -34 1 -10 8 -23 12
-29 8 -6 -3 -7 -1 -3 5 8 14 12 14 44 6z m-5225 -31 c-7 -2 -19 -2 -25 0 -7 3
-2 5 12 5 14 0 19 -2 13 -5z m474 -15 c-3 -8 -6 -5 -6 6 -1 11 2 17 5 13 3 -3
4 -12 1 -19z m4350 -19 c0 -21 -3 -26 -9 -16 -4 9 -5 22 -2 31 9 23 11 20 11
-15z m-4903 2 c4 -5 -3 -7 -14 -4 -23 6 -26 13 -6 13 8 0 17 -4 20 -9z m216
-11 c0 -5 -7 -10 -15 -10 -8 0 -15 5 -15 10 0 6 7 10 15 10 8 0 15 -4 15 -10z
m343 -5 c-3 -9 -8 -14 -10 -11 -3 3 -2 9 2 15 9 16 15 13 8 -4z m4797 5 c0 -5
-7 -10 -15 -10 -8 0 -15 5 -15 10 0 6 7 10 15 10 8 0 15 -4 15 -10z m196 -8
c-16 -2 -32 0 -37 5 -5 5 7 7 29 4 34 -5 35 -6 8 -9z m-5696 -12 c0 -5 -2 -10
-4 -10 -3 0 -8 5 -11 10 -3 6 -1 10 4 10 6 0 11 -4 11 -10z m5750 -5 c-7 -9
-15 -13 -19 -10 -3 3 1 10 9 15 21 14 24 12 10 -5z m-5510 -19 c0 -19 -6 -25
-27 -28 -20 -2 -28 -8 -27 -20 1 -10 -2 -18 -7 -18 -5 0 -6 -7 -3 -15 4 -10
13 -13 24 -10 10 3 21 1 25 -4 3 -7 0 -8 -9 -5 -9 3 -16 1 -16 -5 0 -9 -5 -9
-20 -1 -11 6 -19 16 -17 23 1 7 -6 11 -15 9 -9 -1 -19 2 -23 8 -3 5 0 7 8 4
17 -6 47 31 47 57 0 18 13 27 43 28 12 1 17 -7 17 -23z m4787 -10 c-15 -31
-20 -27 -11 8 3 14 10 24 14 21 5 -3 3 -16 -3 -29z m-4967 -6 c0 -5 -2 -10 -4
-10 -3 0 -8 5 -11 10 -3 6 -1 10 4 10 6 0 11 -4 11 -10z m679 -35 c0 -5 -4 -3
-9 5 -5 8 -9 22 -9 30 0 16 17 -16 18 -35z m4961 41 c0 -11 -19 -15 -25 -6 -3
5 1 10 9 10 9 0 16 -2 16 -4z m-2401 -42 c21 -7 -283 -311 -334 -335 -49 -23
-132 -25 -183 -4 -34 15 -352 319 -352 337 0 14 826 16 869 2z m2321 -9 c-7
-9 -15 -13 -17 -11 -7 7 7 26 19 26 6 0 6 -6 -2 -15z m-38 -12 c-6 -2 -9 -10
-5 -16 3 -7 3 -9 -1 -6 -4 4 -19 -4 -33 -17 -14 -13 -31 -24 -37 -24 -6 0 1 8
14 17 14 9 31 25 38 35 7 10 19 18 25 17 9 0 8 -2 -1 -6z m-4822 -41 c0 -15
-2 -15 -10 -2 -13 20 -13 33 0 25 6 -3 10 -14 10 -23z m4227 -29 c-3 -10 -5
-2 -5 17 0 19 2 27 5 18 2 -10 2 -26 0 -35z m-4184 -96 c7 4 5 -2 -3 -13 -8
-10 -16 -21 -17 -23 -2 -2 -3 9 -2 25 0 16 3 23 6 16 2 -6 10 -9 16 -5z m4131
-10 c-2 -7 -15 -13 -27 -14 -21 -2 -21 -1 3 12 31 18 30 18 24 2z m526 -72 c0
-5 -5 -3 -10 5 -5 8 -10 20 -10 25 0 6 5 3 10 -5 5 -8 10 -19 10 -25z m-5173
-7 c-3 -7 -5 -2 -5 12 0 14 2 19 5 13 2 -7 2 -19 0 -25z m653 25 c0 -5 -5 -15
-10 -23 -7 -12 -9 -10 -7 8 1 19 17 33 17 15z m125 -7 l30 -13 -27 1 c-16 0
-28 4 -28 8 0 4 -10 9 -22 11 -20 4 -20 4 -3 5 11 1 34 -5 50 -12z m3778 7
c-7 -2 -21 -2 -30 0 -10 3 -4 5 12 5 17 0 24 -2 18 -5z m127 -38 c0 -8 7 -15
15 -15 8 0 16 -8 16 -17 1 -17 2 -17 6 0 2 9 9 17 14 17 5 0 9 8 10 18 1 9 5
-3 10 -27 5 -25 7 -46 5 -48 -7 -7 -56 17 -56 27 0 5 -7 10 -15 10 -8 0 -15
-6 -15 -12 0 -23 -20 16 -20 40 0 13 6 22 15 22 8 0 15 -7 15 -15z m-133 -21
c-3 -3 -12 -4 -19 -1 -8 3 -5 6 6 6 11 1 17 -2 13 -5z m-3962 -14 c-11 -5 -31
-8 -45 -8 -23 0 -22 1 5 8 42 11 65 11 40 0z m-595 -20 c0 -5 -2 -10 -4 -10
-3 0 -8 5 -11 10 -3 6 -1 10 4 10 6 0 11 -4 11 -10z m-17 -35 c4 -8 2 -17 -3
-20 -6 -4 -10 3 -10 14 0 25 6 27 13 6z m382 5 c-17 -6 -55 -3 -55 5 0 2 17 3
38 3 27 0 32 -2 17 -8z m4842 -12 c-3 -8 -6 -5 -6 6 -1 11 2 17 5 13 3 -3 4
-12 1 -19z m-4972 -18 c3 -5 1 -10 -4 -10 -6 0 -11 5 -11 10 0 6 2 10 4 10 3
0 8 -4 11 -10z m4800 -28 c-3 -3 -11 0 -18 7 -9 10 -8 11 6 5 10 -3 15 -9 12
-12z"/>
<path d="M4265 3616 c-50 -22 -85 -71 -85 -118 0 -105 110 -171 197 -118 45
27 66 64 66 115 0 94 -95 159 -178 121z"/>
<path d="M3619 3535 c-77 -42 -86 -152 -18 -210 24 -19 42 -25 81 -25 43 0 54
4 83 33 43 43 53 92 29 142 -31 66 -112 94 -175 60z"/>
<path d="M4867 3190 c-63 -50 -52 -146 19 -176 72 -30 144 18 144 98 0 82 -98
129 -163 78z"/>
<path d="M3766 3162 c-4 -6 -3 -20 3 -29 47 -87 181 -94 229 -11 25 43 5 45
-32 5 -30 -33 -39 -37 -80 -37 -48 0 -74 17 -102 65 -7 13 -13 15 -18 7z"/>
<path d="M4420 3156 c0 -7 9 -25 20 -38 46 -59 144 -63 193 -8 26 29 36 60 20
60 -5 0 -21 -16 -36 -35 -25 -31 -33 -35 -76 -35 -39 0 -53 5 -75 26 -14 15
-26 31 -26 35 0 5 -4 9 -10 9 -5 0 -10 -6 -10 -14z"/>
<path d="M4225 2984 c-29 -31 -33 -79 -9 -112 14 -20 14 -22 -3 -22 -31 1 -88
25 -125 53 -19 15 -39 27 -43 27 -16 0 40 -52 75 -70 87 -44 156 -33 231 37
49 45 59 63 38 63 -6 0 -24 11 -41 25 -41 34 -91 34 -123 -1z"/>
<path d="M3656 2899 c-50 -14 -76 -47 -76 -96 0 -25 5 -53 10 -64 13 -23 61
-49 92 -49 66 0 123 80 98 140 -22 54 -74 83 -124 69z"/>
<path d="M3578 2550 c-73 -22 -128 -95 -128 -170 0 -134 140 -221 258 -161 46
23 67 46 87 94 56 136 -75 280 -217 237z"/>
<path d="M4755 2451 c-49 -23 -75 -65 -75 -124 0 -130 173 -173 246 -62 44 67
3 173 -74 195 -48 13 -50 13 -97 -9z"/>
</g>
</svg>
