<?xml version="1.0" standalone="no"?>
<!DOCTYPE svg PUBLIC "-//W3C//DTD SVG 20010904//EN"
 "http://www.w3.org/TR/2001/REC-SVG-20010904/DTD/svg10.dtd">
<svg version="1.0" xmlns="http://www.w3.org/2000/svg"
 width="512.000000pt" height="512.000000pt" viewBox="0 0 512.000000 512.000000"
 preserveAspectRatio="xMidYMid meet">
<metadata>
Created by potrace 1.16, written by Peter Selinger 2001-2019
</metadata>
<g transform="translate(0.000000,512.000000) scale(0.100000,-0.100000)"
fill="#000000" stroke="none">
<path d="M0 2560 l0 -2560 2560 0 2560 0 0 2560 0 2560 -2560 0 -2560 0 0
-2560z m3176 2387 c22 -19 28 -34 32 -80 l4 -57 -81 0 -81 0 0 55 c0 46 4 60
25 80 30 31 66 32 101 2z m264 -1021 c187 -34 372 -100 509 -182 147 -87 180
-136 129 -191 -31 -33 -65 -29 -133 18 -177 119 -467 219 -638 219 -109 0
-117 -128 -10 -145 203 -33 310 -63 429 -122 l74 -36 0 -346 c0 -382 -3 -410
-62 -531 -38 -78 -147 -191 -228 -237 -281 -160 -676 -116 -890 97 -77 76
-122 157 -150 266 -18 69 -20 111 -20 414 l0 337 88 41 c108 50 237 88 359
107 127 19 143 30 143 94 0 68 -56 77 -238 42 -186 -36 -349 -102 -485 -195
-76 -52 -107 -57 -142 -21 -47 46 -28 85 73 152 184 122 408 202 658 233 105
13 435 5 534 -14z m-1199 -544 l59 3 0 -132 0 -133 -53 0 c-65 0 -114 25 -139
71 -14 26 -18 56 -18 131 l0 97 46 -20 c33 -15 62 -20 105 -17z m1902 -195
c-25 -43 -76 -67 -141 -67 l-53 0 3 132 3 132 65 -2 c47 -1 74 3 100 17 l35
19 3 -100 c2 -82 -1 -106 -15 -131z m-1273 -1040 c65 -19 100 -22 255 -22 177
0 241 9 348 50 16 7 17 -2 17 -104 l0 -111 -181 -121 -181 -121 -184 123 -184
122 0 110 c0 100 1 109 18 102 9 -3 51 -16 92 -28z m-108 -368 c43 -28 78 -55
78 -59 0 -4 -36 -28 -80 -53 l-79 -45 -71 83 -70 83 58 20 c31 11 63 21 71 21
8 1 50 -22 93 -50z m906 24 l44 -19 -66 -79 c-37 -44 -69 -80 -72 -79 -11 1
-164 89 -164 94 0 3 35 29 78 57 85 58 101 60 180 26z m-1808 -1263 l0 -80
-545 0 -545 0 0 80 0 80 545 0 545 0 0 -80z m594 59 c20 -16 26 -29 26 -59 0
-30 -6 -43 -26 -59 -15 -12 -37 -21 -49 -21 -12 0 -34 9 -49 21 -20 16 -26 29
-26 59 0 30 6 43 26 59 15 12 37 21 49 21 12 0 34 -9 49 -21z m2204 -291 l3
-158 -241 0 -240 0 0 153 c0 85 3 157 7 161 4 3 110 5 237 4 l231 -3 3 -157z"/>
<path d="M2756 3389 c-24 -19 -26 -26 -26 -104 0 -78 2 -85 26 -104 33 -26 65
-27 95 -2 22 18 24 27 24 106 0 79 -2 88 -24 106 -30 25 -62 24 -95 -2z"/>
<path d="M3414 3398 c-30 -14 -44 -50 -44 -114 0 -108 57 -156 124 -103 24 19
26 26 26 104 0 78 -2 85 -26 104 -29 23 -48 25 -80 9z"/>
<path d="M2889 2881 c-20 -16 -24 -28 -23 -68 4 -136 119 -245 258 -245 137 0
247 96 263 230 14 125 -131 143 -150 18 -21 -134 -202 -129 -223 6 -4 23 -15
49 -26 60 -23 23 -69 23 -99 -1z"/>
</g>

</svg>
